<?xml version="1.0" encoding="UTF-8"?>
<svg width="40px" height="40px" viewBox="0 0 40 40" version="1.1" xmlns="http://www.w3.org/2000/svg" xmlns:xlink="http://www.w3.org/1999/xlink">
    <!-- Generator: Sketch 48.2 (47327) - http://www.bohemiancoding.com/sketch -->
    <title>QQ</title>
    <desc>Created with Sketch.</desc>
    <defs></defs>
    <g id="最终" stroke="none" stroke-width="1" fill="none" fill-rule="evenodd">
        <path d="M20,40 C8.95430446,40 0,31.0456955 0,20 C0,8.95430446 8.95430446,0 20,0 C31.0456955,0 40,8.95430446 40,20 C40,31.0456955 31.0456955,40 20,40 Z M10.5277479,16.1208855 C10.3923822,16.4829183 10.5908497,16.7121181 10.5277479,18.0904747 C10.5107752,18.4612176 8.93098359,20.1393814 8.30402389,21.8823517 C7.68206027,23.6114323 7.59647535,25.4177277 8.5567198,26.1276443 C9.51696424,26.837561 10.4109211,23.7645816 10.5277479,24.2117172 C10.5787171,24.4067937 10.6422778,24.6097405 10.7187838,24.8182428 C11.0260828,25.6557263 11.5422381,26.5828402 12.290194,27.4495763 C12.442135,27.6256465 11.3646723,27.9494232 10.7187838,29.0612854 C10.0728953,30.1731476 10.9038334,32.1947149 14.11603,32.1947144 C18.2602431,32.1947144 19.1865528,30.7202483 19.2710264,30.726709 C19.5795995,30.7503093 19.6009252,30.7267093 19.9280359,30.7267094 C20.3282234,30.7267095 20.1626454,30.7592661 20.5345061,30.726709 C20.7353321,30.7091263 22.7494523,32.4913546 25.5378851,32.1947144 C30.2885687,31.689325 29.5621034,30.078132 29.1892004,29.0612854 C28.8000006,28 27.4237968,27.5027007 27.4845476,27.4347584 C28.6225828,26.1620064 28.8029117,25.3806169 29.1892002,24.2117175 C29.3479967,23.7312035 30.4503476,26.8553601 31.2993518,26.1276443 C31.6531268,25.8244095 32.3606753,24.5609283 31.6531268,21.8823517 C30.9455783,19.203775 29.5775157,18.5927452 29.6072404,18.0904745 C29.6691066,17.0450949 29.6331873,16.310996 29.5810199,16.1208855 C29.3283236,15.2 28.8,15.4033346 28.8,15.2 C28.8,9.89806614 24.860106,5.6 20,5.6 C15.139894,5.6 11.2,9.89806614 11.2,15.2 C11.2,15.6208242 10.8309831,15.3098892 10.5277479,16.1208855 Z" id="QQ" fill="#54B5EF"></path>
    </g>
</svg>