<?xml version="1.0" encoding="UTF-8"?>
<svg width="40px" height="40px" viewBox="0 0 40 40" version="1.1" xmlns="http://www.w3.org/2000/svg" xmlns:xlink="http://www.w3.org/1999/xlink">
    <!-- Generator: Sketch 48.2 (47327) - http://www.bohemiancoding.com/sketch -->
    <title>qzone</title>
    <desc>Created with Sketch.</desc>
    <defs></defs>
    <g id="最终" stroke="none" stroke-width="1" fill="none" fill-rule="evenodd">
        <path d="M20,40 C8.95430446,40 0,31.0456955 0,20 C0,8.95430446 8.95430446,0 20,0 C31.0456955,0 40,8.95430446 40,20 C40,31.0456955 31.0456955,40 20,40 Z M20.203939,28.6 C20.203939,28.6 28.1135727,33.6134644 28.668046,33.0498454 C29.0754378,32.635734 27.9807806,27.562327 27.3876831,24.9953247 C27.3688395,24.9137672 24.2935952,25.3376251 20.8860611,25.3602112 C17.8588605,25.3802763 14.4840675,25.1752182 14.4840675,25.1752182 L22.3646622,19.3088173 C22.3646622,19.3088173 19.9156016,18.8611501 18.0549622,18.6931458 C15.3967141,18.4531223 13.0666844,18.4588031 13.3563324,18.3853104 C13.817677,18.2682528 17.0482145,17.9654459 20.2039398,18.0774742 C23.0855331,18.1797709 25.9355576,18.6931458 25.9355576,18.6931458 L18.0549622,24.3123489 C18.0549622,24.3123489 19.775727,24.5774494 21.2056381,24.6321732 C23.9277959,24.7363518 27.2488993,24.6606841 27.2421417,24.6321732 C27.1402349,24.2022179 27.0515456,23.6249244 27.0515456,23.6249244 C27.0515456,23.6249244 34.1528595,17.6764587 33.8991555,16.9501625 C33.6454515,16.2238662 24.4359947,15.5750788 24.4359947,15.5750788 C24.4359947,15.5750788 21.0288899,6.99999988 20.2039395,7 C19.3789891,7.00000012 15.9718869,15.5750767 15.9718869,15.5750767 C15.9718869,15.5750767 6.80084207,16.2200912 6.50872541,16.9501556 C6.21660877,17.68022 13.3563325,23.6249226 13.3563325,23.6249226 C13.3563325,23.6249226 11.2471792,32.6539842 11.7398324,33.0498452 C12.2324856,33.4457062 20.203939,28.6 20.203939,28.6 Z" id="qzone" fill="#F7CF46"></path>
    </g>
</svg>