<?xml version="1.0" standalone="no"?><!DOCTYPE svg PUBLIC "-//W3C//DTD SVG 1.1//EN" "http://www.w3.org/Graphics/SVG/1.1/DTD/svg11.dtd"><svg t="1577084750749" class="icon" viewBox="0 0 1024 1024" version="1.1" xmlns="http://www.w3.org/2000/svg" p-id="4425" xmlns:xlink="http://www.w3.org/1999/xlink" width="200" height="200"><defs><style type="text/css"></style></defs><path d="M840.787 366.705h-209.766c81.271-300.918-56.010-316.294-56.010-316.294-58.206 0-46.126 46.126-50.518 53.814 0 147.164-155.951 262.48-155.951 262.48v417.334c0 41.184 56.010 56.010 77.975 56.010h315.197c29.653 0 53.813-77.976 53.813-77.976 77.976-265.774 77.976-344.848 77.976-344.848 0-54.912-52.716-50.52-52.716-50.52z" p-id="4426"></path><path d="M282.467 366.843h-125.612c-25.946 0-26.358 25.534-26.358 25.534l25.946 420.902c0 26.77 26.77 26.77 26.77 26.77h108.726c22.651 0 22.445-17.709 22.445-17.709v-423.579c0-32.33-31.917-31.918-31.917-31.918z" p-id="4427"></path></svg>