<?xml version="1.0" standalone="no"?><!DOCTYPE svg PUBLIC "-//W3C//DTD SVG 1.1//EN" "http://www.w3.org/Graphics/SVG/1.1/DTD/svg11.dtd"><svg t="1610703399826" class="icon" viewBox="0 0 1024 1024" version="1.1" xmlns="http://www.w3.org/2000/svg" p-id="34532" xmlns:xlink="http://www.w3.org/1999/xlink" width="128" height="128"><defs><style type="text/css"></style></defs><path d="M453.485714 566.857143h102.4l10.971429-109.714286h-102.4z" fill="#FF4970" p-id="34533"></path><path d="M512 0C230.4 0 0 230.4 0 512s230.4 512 512 512 512-230.4 512-512S793.6 0 512 0z m182.857143 457.142857h-54.857143l-10.971429 109.714286h47.542858c21.942857 0 36.571429 18.285714 36.571428 36.571428s-14.628571 36.571429-36.571428 36.571429H621.714286l-7.314286 54.857143c0 18.285714-18.285714 32.914286-36.571429 32.914286h-3.657142c-18.285714-3.657143-32.914286-21.942857-32.914286-40.228572l3.657143-47.542857h-102.4l-3.657143 58.514286c0 18.285714-18.285714 32.914286-36.571429 32.914285-18.285714-3.657143-32.914286-21.942857-32.914285-40.228571l3.657142-47.542857H329.142857c-21.942857 0-36.571429-18.285714-36.571428-36.571429s14.628571-36.571429 36.571428-36.571428h51.2l10.971429-109.714286H347.428571c-21.942857 0-36.571429-18.285714-36.571428-36.571429 0-21.942857 14.628571-36.571429 36.571428-36.571428H402.285714l7.314286-54.857143c3.657143-21.942857 21.942857-36.571429 40.228571-32.914286 18.285714 3.657143 32.914286 21.942857 32.914286 40.228572l-7.314286 40.228571h102.4l7.314286-54.857143c0-18.285714 18.285714-36.571429 36.571429-32.914285s32.914286 21.942857 32.914285 40.228571l-3.657142 47.542857H694.857143c21.942857 0 36.571429 18.285714 36.571428 36.571429 0 25.6-14.628571 40.228571-36.571428 40.228571z" fill="#FF4970" p-id="34534"></path></svg>