<?xml version="1.0" standalone="no"?><!DOCTYPE svg PUBLIC "-//W3C//DTD SVG 1.1//EN" "http://www.w3.org/Graphics/SVG/1.1/DTD/svg11.dtd"><svg t="1610703188872" class="icon" viewBox="0 0 1024 1024" version="1.1" xmlns="http://www.w3.org/2000/svg" p-id="34246" xmlns:xlink="http://www.w3.org/1999/xlink" width="128" height="128"><defs><style type="text/css"></style></defs><path d="M793.1 466.8c0 68.7-35.4 142.6-97.1 202.7C639.9 724 571.9 758 518.6 758c-53.4 0-121.4-33.9-177.4-88.5-61.7-60.1-97.1-134-97.1-202.7 0-3.4 0.1-6.8 0.2-10.4-0.1-2-0.1-4-0.1-6.1 0-89.5 72.8-162.4 162.4-162.4 44.6 0 86.3 18 116.5 49.3 29.4-29 69.2-45.7 111.4-45.7 87.5 0 158.8 71.2 158.8 158.8 0 2.4-0.1 4.8-0.2 7.4v9.1M512.5 64.3C265.3 64.3 65 264.6 65 511.8c0 247.1 200.4 447.5 447.5 447.5S960 758.9 960 511.8c0-247.2-200.4-447.5-447.5-447.5" fill="#FF4946" p-id="34247"></path></svg>