<?xml version="1.0" standalone="no"?><!DOCTYPE svg PUBLIC "-//W3C//DTD SVG 1.1//EN" "http://www.w3.org/Graphics/SVG/1.1/DTD/svg11.dtd"><svg class="icon" width="128px" height="128.00px" viewBox="0 0 1024 1024" version="1.1" xmlns="http://www.w3.org/2000/svg"><path d="M827 764.28L572.5 911.97A118.643 118.643 0 0 1 513 928c-20.87 0-41.38-5.54-59.5-16.03L199 764.28c-36.71-21.3-59.5-60.99-59.5-103.55V365.31c0-42.6 22.79-82.29 59.5-103.59l254.5-147.69A118.643 118.643 0 0 1 513 98c20.87 0 41.42 5.54 59.5 16.03L827 261.72c36.71 21.3 59.5 60.99 59.5 103.59v295.41c0 42.57-22.79 82.26-59.5 103.56zM704.78 442.22c-4.52-13.99-17.49-23.46-32.11-23.42h-97.74l-30.22-93.41c-4.52-14.03-17.41-23.5-32.11-23.5-14.62-0.04-27.59 9.47-32.11 23.46l-30.22 93.45h-97.74c-14.62-0.04-27.59 9.43-32.07 23.42a33.88 33.88 0 0 0 12.22 37.92l79.11 57.77-30.22 93.45c-3.34 10.3-1.53 21.65 4.76 30.38 6.37 8.8 16.58 14.03 27.35 14.03 7.15 0 14.03-2.24 19.85-6.48l79.07-57.77 79.11 57.77c5.82 4.25 12.65 6.48 19.81 6.48 10.77 0 20.98-5.23 27.35-14.03 6.33-8.72 8.1-20.08 4.75-30.38l-30.22-93.45 79.11-57.77c11.88-8.64 16.79-23.97 12.27-37.92z" fill="#FF7E0B" /><path d="M827 764.28c36.71-21.3 59.5-60.99 59.5-103.55V532.81c-31.55-24.33-85.92-49.7-181.07-73.63-1.61 8.2-5.83 15.8-12.91 20.96l-79.11 57.77 30.22 93.45c3.34 10.3 1.57 21.65-4.75 30.38-6.37 8.8-16.58 14.03-27.35 14.03-7.15 0-13.99-2.24-19.81-6.48l-79.11-57.77-79.07 57.77a33.451 33.451 0 0 1-19.85 6.48c-10.77 0-20.99-5.23-27.35-14.03-6.29-8.72-8.1-20.08-4.76-30.38l30.22-93.45-79.11-57.77a33.884 33.884 0 0 1-12.22-37.92c4.48-13.99 17.45-23.46 32.07-23.42h97.74l6.11-18.9c-97.72-36.48-175.02-92.72-234.55-151.43L199 261.72c-36.71 21.3-59.5 60.99-59.5 103.59v295.41c0 42.56 22.79 82.25 59.5 103.55l88.92 51.6h450.16L827 764.28z" fill="#FF670D" /><path d="M827 764.28c18.84-10.93 33.84-26.81 44.15-45.33-11.62-40.98-29.05-100.45-248.42-152.23l20.91 64.66c3.34 10.3 1.57 21.65-4.75 30.38-6.37 8.8-16.58 14.03-27.35 14.03-7.15 0-13.99-2.24-19.81-6.48l-79.11-57.77-79.07 57.77a33.451 33.451 0 0 1-19.85 6.48c-10.77 0-20.99-5.23-27.35-14.03-6.29-8.72-8.1-20.08-4.76-30.38l30.22-93.45-56.23-41.06c-88.63-39.63-159.35-95.07-213.42-151.54-1.14 6.62-2.65 13.16-2.65 20v295.41c0 42.56 22.79 82.25 59.5 103.55l254.5 147.69C471.62 922.46 492.13 928 513 928c20.87 0 41.42-5.54 59.5-16.04L827 764.28z" fill="#FF5200" /></svg>