<?xml version="1.0" standalone="no"?><!DOCTYPE svg PUBLIC "-//W3C//DTD SVG 1.1//EN" "http://www.w3.org/Graphics/SVG/1.1/DTD/svg11.dtd"><svg class="icon" width="128px" height="128.00px" viewBox="0 0 1024 1024" version="1.1" xmlns="http://www.w3.org/2000/svg"><path fill="#bfbfbf" d="M321.083809 271.862781l-88.211041 135.384433 249.14129 0L321.083809 271.862781zM676.147524 266.673595 347.650885 266.673595l164.005284 137.976468L676.147524 266.673595zM233.664807 428.307879l239.513002 342.104565L345.386308 428.307879 233.664807 428.307879zM541.353538 407.246191l249.767554 0-88.270393-135.473461L541.353538 407.246191zM367.880625 428.307879l144.16747 385.944026L657.706523 428.307879 367.880625 428.307879zM511.989767 64.119343c-247.336178 0-447.841771 200.50457-447.841771 447.841771 0 247.338225 200.505593 447.846888 447.841771 447.846888s447.846888-200.505593 447.846888-447.846888C959.835631 264.623913 759.325945 64.119343 511.989767 64.119343L511.989767 64.119343zM819.169915 423.823751l-307.176055 438.755836L200.721511 417.994999l112.337531-172.387185 397.865543 0 112.337531 172.392302L819.169915 423.823751 819.169915 423.823751zM551.452547 769.503748 790.329053 428.307879l-110.11798 0L551.452547 769.503748zM551.452547 769.503748"  /></svg>