<?xml version="1.0" standalone="no"?><!DOCTYPE svg PUBLIC "-//W3C//DTD SVG 1.1//EN" "http://www.w3.org/Graphics/SVG/1.1/DTD/svg11.dtd"><svg class="icon" width="128px" height="128.00px" viewBox="0 0 1024 1024" version="1.1" xmlns="http://www.w3.org/2000/svg"><path d="M513.706667 90.624l136.704 277.162667 305.834666 44.373333L735.061333 628.053333l52.394667 304.64L513.706667 788.821333l-273.578667 143.872L292.352 628.053333 70.997333 412.16l305.834667-44.373333L513.706667 90.624z m0 0" fill="#FFB533" /><path d="M240.128 937.130667c-1.024 0-1.877333-0.341333-2.56-0.853334-1.365333-1.024-2.048-2.730667-1.706667-4.437333l51.882667-302.421333L67.925333 415.402667c-1.194667-1.194667-1.706667-2.901333-1.194666-4.608 0.512-1.536 1.877333-2.730667 3.584-3.072L373.930667 363.52l135.68-274.944c1.536-3.072 6.314667-3.072 7.850666 0l135.850667 275.114667 303.786667 44.202666c1.706667 0.341333 3.072 1.365333 3.584 3.072 0.512 1.536 0.170667 3.413333-1.194667 4.608L739.84 629.589333 791.722667 931.84c0.341333 1.706667-0.341333 3.413333-1.706667 4.437333-1.365333 1.024-3.072 1.194667-4.778667 0.341334l-271.36-142.848L242.346667 936.618667c-0.853333 0.341333-1.536 0.512-2.218667 0.512zM513.706667 784.384c0.682667 0 1.365333 0.170667 2.048 0.512l265.728 139.776-50.688-295.936c-0.341333-1.365333 0.170667-2.901333 1.194666-3.925333l215.04-209.578667L649.898667 372.053333c-1.365333-0.170667-2.730667-1.024-3.413334-2.389333L513.706667 100.522667l-132.778667 269.141333c-0.682667 1.365333-1.877333 2.218667-3.413333 2.389333l-296.96 43.178667 215.04 209.578667c1.024 1.024 1.536 2.56 1.194666 3.925333l-50.688 295.936L511.658667 785.066667c0.682667-0.512 1.365333-0.682667 2.048-0.682667z m0 0" fill="#E8AA2E" /><path d="M513.706667 90.624l136.704 277.162667 305.834666 44.373333L735.061333 628.053333l52.394667 304.64L513.706667 788.821333l-273.578667 143.872L292.352 628.053333 70.997333 412.16l305.834667-44.373333L513.706667 90.624z m0 0" fill="#FFB533" /><path d="M240.128 937.130667c-1.024 0-1.877333-0.341333-2.56-0.853334-1.365333-1.024-2.048-2.730667-1.706667-4.437333l51.882667-302.421333L67.925333 415.402667c-1.194667-1.194667-1.706667-2.901333-1.194666-4.608 0.512-1.536 1.877333-2.730667 3.584-3.072L373.930667 363.52l135.68-274.944c1.536-3.072 6.314667-3.072 7.850666 0l135.850667 275.114667 303.786667 44.202666c1.706667 0.341333 3.072 1.365333 3.584 3.072 0.512 1.536 0.170667 3.413333-1.194667 4.608L739.84 629.589333 791.722667 931.84c0.341333 1.706667-0.341333 3.413333-1.706667 4.437333-1.365333 1.024-3.072 1.194667-4.778667 0.341334l-271.36-142.848L242.346667 936.618667c-0.853333 0.341333-1.536 0.512-2.218667 0.512zM513.706667 784.384c0.682667 0 1.365333 0.170667 2.048 0.512l265.728 139.776-50.688-295.936c-0.341333-1.365333 0.170667-2.901333 1.194666-3.925333l215.04-209.578667L649.898667 372.053333c-1.365333-0.170667-2.730667-1.024-3.413334-2.389333L513.706667 100.522667l-132.778667 269.141333c-0.682667 1.365333-1.877333 2.218667-3.413333 2.389333l-296.96 43.178667 215.04 209.578667c1.024 1.024 1.536 2.56 1.194666 3.925333l-50.688 295.936L511.658667 785.066667c0.682667-0.512 1.365333-0.682667 2.048-0.682667z m0 0" fill="#E8AA2E" /><path d="M377.002667 371.882667l-0.853334 0.170666L513.706667 556.202667v-455.68l-136.704 271.36z m270.506666 0l-0.341333-0.682667L513.706667 556.202667l432.981333-140.8-299.178667-43.52z m0 0" fill="#FFCC5A" /><path d="M379.904 371.882667l0.341333-0.682667L513.706667 556.202667 80.554667 415.402667l299.349333-43.52z m0 0M730.282667 626.517333l0.512-0.512L513.706667 556.202667l267.605333 368.64-51.029333-298.325334z m0 0" fill="#FFCC5A" /><path d="M297.130667 626.517333l-0.512-0.512 217.429333-69.802666-268.117333 368.64 51.2-298.325334z m0 0" fill="#FFCC5A" /></svg>