<?xml version="1.0" standalone="no"?><!DOCTYPE svg PUBLIC "-//W3C//DTD SVG 1.1//EN" "http://www.w3.org/Graphics/SVG/1.1/DTD/svg11.dtd"><svg class="icon" width="128px" height="128.00px" viewBox="0 0 1024 1024" version="1.1" xmlns="http://www.w3.org/2000/svg"><path d="M102.624 518.496a410.016 410.016 0 1 0 820 0c0-226.464-183.552-410.016-409.984-410.016-226.464 0-410.016 183.552-410.016 410.016z" fill="#FFF1B6" /><path d="M511.68 991.168c-264.384 0-479.552-215.168-479.552-479.52S247.296 32.128 511.68 32.128 991.168 247.296 991.168 511.68 776 991.168 511.648 991.168z m0-858.08C302.72 133.28 133.248 302.72 133.056 511.648c0.192 208.896 169.472 378.368 378.56 378.56 209.12-0.192 378.368-169.664 378.56-378.56-0.192-208.896-169.664-378.368-378.56-378.56z" fill="#F9D84E" /><path d="M511.04 283.616l72.64 145.824 161.28 22.848-116.352 114.016 28.288 160.896-144.48-75.36-144.064 76.32 26.944-160.672-117.152-113.6 161.28-24.032z" fill="#F7BC39" /></svg>