<?xml version="1.0" standalone="no"?><!DOCTYPE svg PUBLIC "-//W3C//DTD SVG 1.1//EN" "http://www.w3.org/Graphics/SVG/1.1/DTD/svg11.dtd"><svg class="icon" width="128px" height="128.00px" viewBox="0 0 1024 1024" version="1.1" xmlns="http://www.w3.org/2000/svg"><path d="M 0 0 h 1024 v 1024 H 0 Z" fill="#d81e06" fill-opacity="0.01" /><path d="M 999.652 321.536 a 81.18 81.18 0 0 0 -58.084 -24.178 c -44.942 0 -81.465 36.125 -81.465 80.498 c 0 12.459 2.958 24.69 8.533 35.783 c -47.672 28.9 -95.345 57.629 -142.79 86.244 l -103.31 -186.027 l -31.29 -56.32 c 19.342 -15.246 30.72 -38.23 30.72 -62.92 c 0 -44.372 -36.58 -80.497 -81.465 -80.497 c -44.942 0 -81.465 36.125 -81.465 80.498 c 0 25.259 12.288 49.209 32.54 64.284 l -13.596 24.463 l -16.952 30.606 c -33.85 61.042 -68.836 124.018 -103.424 185.856 a 2530.08 2530.08 0 0 1 -27.762 -16.726 l -12.402 -7.509 c -20.594 -12.515 -41.188 -24.917 -61.838 -37.376 l -45.113 -27.193 c 6.258 -11.491 9.557 -24.462 9.557 -37.774 c 0 -44.373 -36.522 -80.498 -81.465 -80.498 c -44.885 0 -81.35 36.125 -81.35 80.498 c 0 38.57 27.875 71.68 65.706 78.962 l 95.289 322.446 l 2.503 8.76 c 4.835 17.636 9.899 35.84 29.184 35.955 c 61.44 0.227 126.009 0.341 191.545 0.341 l 200.704 -0.17 l 187.79 -0.171 c 24.064 0 28.33 -17.863 32.085 -33.679 c 0.854 -3.47 1.707 -7.224 2.845 -11.036 l 93.866 -318.18 a 81.18 81.18 0 0 0 64 -78.563 a 79.076 79.076 0 0 0 -23.096 -56.377 Z m -459.15 -158.72 c 17.862 0 32.426 14.222 32.426 31.8 c 0 17.58 -14.564 31.859 -32.427 31.859 a 32.142 32.142 0 0 1 -32.426 -31.858 c 0 -17.522 14.563 -31.858 32.426 -31.858 Z M 162.02 395.378 a 32.54 32.54 0 0 1 -23.325 9.67 a 32.142 32.142 0 0 1 -32.37 -31.857 c 0 -17.579 14.564 -31.858 32.427 -31.858 s 32.427 14.28 32.427 31.858 a 31.061 31.061 0 0 1 -9.103 22.187 Z M 844.857 670.15 l -22.528 85.561 c -0.91 2.958 -0.91 8.021 -0.512 20.537 H 262.599 c 3.129 -7.68 3.982 -11.662 2.958 -15.246 l -77.71 -263.225 c -3.356 -11.492 -6.827 -23.04 -10.24 -34.418 l -5.006 -16.84 a 53.077 53.077 0 0 0 1.251 -0.568 l 118.33 71.452 l 12.23 7.453 c 11.776 7.168 24.008 14.563 36.125 21.731 a 39.14 39.14 0 0 0 31.289 5.291 a 38.172 38.172 0 0 0 23.78 -19.57 a 139504 139504 0 0 0 133.859 -240.924 l 8.931 -16.043 c 2.048 0 4.153 0 6.429 -0.114 l 34.702 62.408 a 124137 124137 0 0 1 105.643 190.18 c 5.575 9.898 13.084 20.536 26.738 24.177 c 2.844 0.74 5.688 1.138 8.647 1.138 c 10.353 0 19.57 -4.836 26.453 -8.989 l 80.44 -48.583 l 76.403 -46.194 c 1.706 0.91 3.527 1.764 5.347 2.56 l -38.115 129.366 l -26.17 88.974 Z M 941.568 409.6 a 32.142 32.142 0 0 1 -32.427 -31.8 c 0 -17.523 14.564 -31.859 32.427 -31.859 s 32.427 14.336 32.427 31.858 c 0 17.579 -14.564 31.858 -32.427 31.858 Z M 601.031 899.243 h -305.38 a 25.77 25.77 0 1 0 0 51.712 h 305.38 a 25.77 25.77 0 0 0 25.657 -25.828 a 25.77 25.77 0 0 0 -25.657 -25.884 Z m 183.182 0 h -61.041 a 25.657 25.657 0 0 0 -25.657 25.827 c 0 14.109 11.264 25.6 25.201 25.885 h 61.554 a 25.77 25.77 0 0 0 25.6 -25.828 a 25.77 25.77 0 0 0 -25.6 -25.884 Z" fill="#1296db" /><path d="M 800.597 610.816 l -19.171 72.647 c -0.74 2.503 -0.74 6.827 -0.398 17.465 h -475.08 c 2.674 -6.542 3.414 -9.956 2.504 -12.97 L 242.46 464.212 l -8.704 -29.24 l -4.266 -14.28 a 45.113 45.113 0 0 0 1.138 -0.512 l 100.408 60.7 l 10.468 6.372 a 2426.13 2426.13 0 0 0 30.663 18.432 c 8.761 5.177 17.067 6.884 26.51 4.495 a 32.427 32.427 0 0 0 20.253 -16.612 a 118512 118512 0 0 0 113.778 -204.686 l 7.509 -13.654 c 1.763 0.057 3.584 0 5.461 -0.056 l 29.469 53.02 a 89602.4 89602.4 0 0 1 89.77 161.564 c 4.722 8.42 11.15 17.465 22.756 20.48 a 28.16 28.16 0 0 0 7.282 0.968 a 44.6 44.6 0 0 0 22.528 -7.567 l 68.323 -41.301 l 64.854 -39.253 l 4.55 2.218 l -32.312 109.853 l -22.3 75.605 Z" fill="#d81e06" fill-opacity="0.24" /></svg>