<?xml version="1.0" standalone="no"?><!DOCTYPE svg PUBLIC "-//W3C//DTD SVG 1.1//EN" "http://www.w3.org/Graphics/SVG/1.1/DTD/svg11.dtd"><svg t="1610703264006" class="icon" viewBox="0 0 1024 1024" version="1.1" xmlns="http://www.w3.org/2000/svg" p-id="34382" xmlns:xlink="http://www.w3.org/1999/xlink" width="128" height="128"><defs><style type="text/css"></style></defs><path d="M511.673 515.073m-450.849 0a450.849 450.849 0 1 0 901.698 0 450.849 450.849 0 1 0-901.698 0Z" fill="#77B3D4" p-id="34383"></path><path d="M795.802 740.497c0 15.562-12.616 28.178-28.178 28.178H260.418c-15.562 0-28.178-12.616-28.178-28.178 0-15.562 12.616-28.178 28.178-28.178h507.206c15.562 0 28.178 12.616 28.178 28.178z" fill="#231F20" p-id="34384"></path><path d="M795.802 712.319c0 15.562-12.616 28.178-28.178 28.178H260.418c-15.562 0-28.178-12.616-28.178-28.178 0-15.562 12.616-28.178 28.178-28.178h507.206c15.562 0 28.178 12.616 28.178 28.178z" fill="#E0995E" p-id="34385"></path><path d="M387.22 346.004h-56.356c-23.344 0-42.267 18.924-42.267 42.267v295.87H429.487v-295.87c0-23.343-18.924-42.267-42.267-42.267z" fill="#C75C5C" p-id="34386"></path><path d="M697.179 289.648h-56.356c-23.344 0-42.267 18.924-42.267 42.267v352.226H739.446V331.915c0-23.344-18.924-42.267-42.267-42.267z" fill="#E0E0D1" p-id="34387"></path><path d="M288.596 402.36h140.89v42.267h-140.89zM288.596 585.518h140.89v42.267h-140.89z" fill="#E0995E" p-id="34388"></path><path d="M598.555 585.518h140.89v42.267h-140.89zM598.555 346.004h140.89v42.267h-140.89z" fill="#FFFFFF" p-id="34389"></path><path d="M626.733 627.785V292.236c-16.379 5.823-28.178 21.302-28.178 39.679v352.226h28.178v-56.356zM429.487 627.785V388.271c0-18.377-11.799-33.856-28.178-39.679V684.14h28.178V627.785z" fill="#231F20" p-id="34390"></path><path d="M556.288 233.292h-84.534c-23.344 0-42.267 18.924-42.267 42.267v408.582h169.068V275.559c0-23.344-18.923-42.267-42.267-42.267z" fill="#4F5D73" p-id="34391"></path><path d="M429.487 289.648h169.069v42.267H429.487z" fill="#76C2AF" p-id="34392"></path><path d="M429.487 585.518h169.069v42.267H429.487z" fill="#76C2AF" p-id="34393"></path></svg>