<?xml version="1.0" standalone="no"?><!DOCTYPE svg PUBLIC "-//W3C//DTD SVG 1.1//EN" "http://www.w3.org/Graphics/SVG/1.1/DTD/svg11.dtd"><svg t="1610702836144" class="icon" viewBox="0 0 1024 1024" version="1.1" xmlns="http://www.w3.org/2000/svg" p-id="26182" xmlns:xlink="http://www.w3.org/1999/xlink" width="128" height="128"><defs><style type="text/css"></style></defs><path d="M247.466667 512c0 145.066667 119.466667 264.533333 264.533333 264.533333s264.533333-119.466667 264.533333-264.533333-119.466667-264.533333-264.533333-264.533333-264.533333 119.466667-264.533333 264.533333zM230.4 292.977778c17.066667 17.066667 42.666667 17.066667 62.577778 0s17.066667-42.666667 0-62.577778l-56.888889-56.888889c-17.066667-17.066667-42.666667-17.066667-62.577778 0s-17.066667 42.666667 0 62.577778l56.888889 56.888889zM512 199.111111c25.6 0 42.666667-17.066667 42.666667-42.666667v-85.333333c0-25.6-17.066667-42.666667-42.666667-42.666667s-42.666667 17.066667-42.666667 42.666667v82.488889c0 28.444444 17.066667 45.511111 42.666667 45.511111z m281.6 93.866667l56.888889-56.888889c17.066667-17.066667 17.066667-42.666667 0-62.577778s-42.666667-17.066667-62.577778 0l-56.888889 56.888889c-17.066667 17.066667-17.066667 42.666667 0 62.577778s45.511111 17.066667 62.577778 0zM199.111111 512c0-25.6-17.066667-42.666667-42.666667-42.666667h-85.333333c-25.6 0-42.666667 17.066667-42.666667 42.666667s17.066667 42.666667 42.666667 42.666667h82.488889c28.444444 0 45.511111-17.066667 45.511111-42.666667z m594.488889 219.022222c-17.066667-17.066667-42.666667-17.066667-62.577778 0s-17.066667 42.666667 0 62.577778l56.888889 56.888889c17.066667 17.066667 42.666667 17.066667 62.577778 0s17.066667-42.666667 0-62.577778l-56.888889-56.888889z m-563.2 0l-56.888889 56.888889c-17.066667 17.066667-17.066667 42.666667 0 62.577778s42.666667 17.066667 62.577778 0l56.888889-56.888889c17.066667-17.066667 17.066667-42.666667 0-62.577778s-45.511111-17.066667-62.577778 0z m722.488889-261.688889h-82.488889c-25.6 0-42.666667 17.066667-42.666667 42.666667s17.066667 42.666667 42.666667 42.666667h82.488889c25.6 0 42.666667-17.066667 42.666667-42.666667s-17.066667-42.666667-42.666667-42.666667zM512 824.888889c-25.6 0-42.666667 17.066667-42.666667 42.666667v82.488888c0 25.6 17.066667 42.666667 42.666667 42.666667s42.666667-17.066667 42.666667-42.666667v-82.488888c0-25.6-17.066667-42.666667-42.666667-42.666667z" fill="#F8BB1C" p-id="26183"></path></svg>