<?xml version="1.0" standalone="no"?><!DOCTYPE svg PUBLIC "-//W3C//DTD SVG 1.1//EN" "http://www.w3.org/Graphics/SVG/1.1/DTD/svg11.dtd"><svg t="1610702843666" class="icon" viewBox="0 0 1024 1024" version="1.1" xmlns="http://www.w3.org/2000/svg" p-id="26318" xmlns:xlink="http://www.w3.org/1999/xlink" width="128" height="128"><defs><style type="text/css"></style></defs><path d="M510.729552 0.001555A511.973717 511.973717 0 1 0 874.025604 149.923385 511.973717 511.973717 0 0 0 510.729552 0.001555z m228.92628 780.09118H281.803273a37.947019 37.947019 0 0 1 0-75.894038h458.785682a35.769731 35.769731 0 0 1 37.947019 33.592443v4.354576a37.324937 37.324937 0 0 1-36.702854 37.947019zM246.344583 631.41507c-12.441646 0 49.1445-354.275859 130.326238-347.121913 22.706003 0 53.499076 43.234719 117.884592 195.022795 12.441646 22.706003 62.208228 111.041687 99.844206 46.34513 15.241016-22.706003 22.394962-71.850503 49.1445-80.248614 12.441646-3.110411 56.609488 12.441646 133.43665 182.892191z m474.337739-269.98371a58.475734 58.475734 0 0 1-55.987405-56.609487 56.609488 56.609488 0 0 1 112.907934 0 59.719899 59.719899 0 0 1-56.298447 56.609487z" fill="#FBB53F" p-id="26319"></path></svg>