<?xml version="1.0" standalone="no"?><!DOCTYPE svg PUBLIC "-//W3C//DTD SVG 1.1//EN" "http://www.w3.org/Graphics/SVG/1.1/DTD/svg11.dtd"><svg class="icon" width="128px" height="128.00px" viewBox="0 0 1024 1024" version="1.1" xmlns="http://www.w3.org/2000/svg"><path d="M512 1024A512 512 0 1 0 0 512a512 512 0 0 0 512 512z" fill="#1ED6C4" /><path d="M641.596952 638.780952a61.098667 61.098667 0 0 0 61.110858-60.720762V316.879238a61.086476 61.086476 0 0 0-61.110858-60.720762H293.241905a61.098667 61.098667 0 0 0-61.110857 60.720762v261.12a61.086476 61.086476 0 0 0 61.110857 60.781714h22.406095v101.180953a24.380952 24.380952 0 0 0 14.262857 20.23619h6.095238a18.566095 18.566095 0 0 0 16.298667-8.094476l83.529143-113.371429z" fill="#464C63" /><path d="M342.137905 600.271238a12.312381 12.312381 0 0 0-8.143238-2.023619h-40.752762a20.345905 20.345905 0 0 1-20.370286-20.23619V316.879238a20.345905 20.345905 0 0 1 20.370286-20.23619h348.355047a20.345905 20.345905 0 0 1 20.370286 20.23619v261.12a20.345905 20.345905 0 0 1-20.370286 20.236191H419.547429c-2.03581 2.023619-2.03581 2.023619-4.071619 2.023619s-2.03581 2.023619-4.07162 2.023619l-2.035809 2.023619a1.987048 1.987048 0 0 0-2.03581 2.023619l-50.931809 72.874666V620.495238a22.016 22.016 0 0 0-14.262857-20.23619z" fill="#93CFEF" /><path d="M743.460571 335.104a19.18781 19.18781 0 0 0-20.370285 20.23619 20.345905 20.345905 0 0 0 20.370285 20.236191 20.345905 20.345905 0 0 1 20.370286 20.23619v220.647619c0 12.190476-10.191238 16.188952-20.370286 16.188953h-20.370285a19.18781 19.18781 0 0 0-20.370286 20.23619v2.023619c0 2.023619-2.03581 4.047238-2.03581 6.095238v38.460953l-46.86019-36.437333a15.34781 15.34781 0 0 0-10.191238-2.02362h-103.887238a20.248381 20.248381 0 1 0 0 40.484572H637.561905l73.337905 56.673524a29.086476 29.086476 0 0 0 12.190476 4.047238 12.312381 12.312381 0 0 0 8.143238-2.023619 23.259429 23.259429 0 0 0 12.190476-18.212572v-68.827428A57.795048 57.795048 0 0 0 804.571429 616.472381v-220.647619a62.464 62.464 0 0 0-61.110858-60.720762" fill="#464C63" /></svg>